# xmcd CD database file
#
# Track frame offsets:
#	150
#	22733
#	42107
#	62034
#	82859
#	109815
#	125846
#	144977
#	166241
#	183482
#	205213
#
# Disc length: 2938 seconds
#
# Revision: 0
# Processed by: cddbd v1.5.2PL0 Copyright (c) Steve Scherf et al.
# Submitted via: CDex 1.70beta2
#
DISCID=8c0b780b
DTITLE=Norman Brown - Stay With Me
DYEAR=2007
DGENRE=Jazz
TTITLE0=Let's Take A Ride
TTITLE1=You Keep Me Lifting Me Higher
TTITLE2=Pop's Cool Groove
TTITLE3=It Ain't Over BWB
TTITLE4=So In Love
TTITLE5=Soul Dance
TTITLE6=Every Little Thing
TTITLE7=A Quiet Place
TTITLE8=I Need You
TTITLE9=Outro
TTITLE10=Dr. Feel Good
EXTD=YEAR: 2007
EXTT0=
EXTT1=
EXTT2=
EXTT3=
EXTT4=
EXTT5=
EXTT6=
EXTT7=
EXTT8=
EXTT9=
EXTT10=
PLAYORDER=
